<svg height="23" width="138" xmlns="http://www.w3.org/2000/svg"><path d="m132.538 3.057v18.9h-2.7v-18.9h-4.8v-2.1h12.3v2.1zm-10.395 11.115c-.47.59-1.06 1.01-1.77 1.26s-1.555.375-2.535.375c-.46 0-.98-.03-1.56-.09s-1.06-.13-1.44-.21v6.45h-2.7v-20.7c.76-.22 1.525-.375 2.295-.465s1.605-.135 2.505-.135c1.2 0 2.22.125 3.06.375s1.52.665 2.04 1.245.9 1.35 1.14 2.31.36 2.15.36 3.57c0 1.46-.115 2.68-.345 3.66s-.58 1.765-1.05 2.355zm-1.53-8.715c-.15-.72-.385-1.29-.705-1.71a2.55 2.55 0 0 0 -1.215-.885c-.49-.17-1.075-.255-1.755-.255h-2.1v11.1h2.1c.68 0 1.265-.085 1.755-.255.49-.169.895-.465 1.215-.885s.555-.99.705-1.71.225-1.62.225-2.7-.075-1.98-.225-2.7zm-15.225 11.1h-6l-1.35 5.4h-2.7l5.1-21h3.9l5.1 21h-2.7zm-2.94-12.6h-.12l-2.49 10.5h5.1zm-12.96 2.4h-.149l-4.351 12.9h-2.7l-4.35-12.9h-.15l-.9 15.6h-2.7l1.2-21h3.3l4.89 14.4h.12l4.89-14.4h3.301l1.199 21h-2.7zm-20.159 13.65c-.561.82-1.236 1.4-2.025 1.74-.791.34-1.696.51-2.716.51-1.019 0-1.925-.17-2.715-.51s-1.465-.92-2.025-1.74-.985-1.925-1.275-3.315-.435-3.135-.435-5.235.145-3.845.435-5.235.715-2.495 1.275-3.315 1.235-1.4 2.025-1.74 1.696-.51 2.715-.51c1.02 0 1.925.17 2.716.51.789.34 1.464.92 2.025 1.74.559.82.984 1.925 1.274 3.315s.436 3.135.436 5.235-.146 3.845-.436 5.235-.715 2.495-1.274 3.315zm-1.305-12.99c-.211-1.16-.486-2.08-.826-2.76s-.74-1.15-1.2-1.41-.93-.39-1.41-.39-.95.13-1.409.39c-.461.26-.861.73-1.201 1.41s-.614 1.6-.825 2.76c-.21 1.16-.314 2.64-.314 4.44s.104 3.28.314 4.44c.211 1.16.485 2.08.825 2.76s.74 1.15 1.201 1.41c.459.26.929.39 1.409.39s.95-.13 1.41-.39.86-.73 1.2-1.41.615-1.6.826-2.76c.21-1.16.314-2.64.314-4.44s-.104-3.28-.314-4.44zm-16.185 5.34h-6.301v9.6h-2.699v-21h2.699v9.3h6.301v-9.3h2.699v21h-2.699zm-14.25 9.6-3.75-9-3.75 9h-2.7l4.5-10.8-4.05-10.2h2.7l3.3 8.4 3.3-8.4h2.7l-4.05 10.2 4.5 10.8zm-22.05-21h10.2v2.1h-7.5v6.9h6.6v2.1h-6.6v7.8h7.5v2.1h-10.2zm-7.2 21h-2.7v-18.9h-4.8v-2.1h12.3v2.1h-4.8z" fill="#fff" fill-rule="evenodd"/></svg>